STARTFONT 2.3
FONT -FontForge-Zen Tokyo Zoo-Book-R-Normal--12-120-72-72-P-56-ISO10646-1
SIZE 12 72 72  4
FONTBOUNDINGBOX 17 17 -2 -3
COMMENT "Generated by fontforge, http://fontforge.sourceforge.net"
COMMENT "Copyright 2021 The Zen Tokyo Zoo Project Authors (https://github.com/googlefonts/zen-tokyo-zoo)"
STARTPROPERTIES 40
FOUNDRY "FontForge"
FAMILY_NAME "Zen Tokyo Zoo"
WEIGHT_NAME "Book"
SLANT "R"
SETWIDTH_NAME "Normal"
ADD_STYLE_NAME ""
PIXEL_SIZE 12
POINT_SIZE 120
RESOLUTION_X 72
RESOLUTION_Y 72
SPACING "P"
AVERAGE_WIDTH 56
CHARSET_REGISTRY "ISO10646"
CHARSET_ENCODING "1"
FONTNAME_REGISTRY ""
CHARSET_COLLECTIONS "ISO10646-1"
BITS_PER_PIXEL 4
FONT_NAME "ZenTokyoZoo-Regular"
FACE_NAME "Zen Tokyo Zoo Regular"
COPYRIGHT "Copyright 2021 The Zen Tokyo Zoo Project Authors (https://github.com/googlefonts/zen-tokyo-zoo)"
FONT_VERSION "1.002; ttfautohint (v1.8.3)"
FONT_ASCENT 10
FONT_DESCENT 2
UNDERLINE_POSITION -2
UNDERLINE_THICKNESS 1
X_HEIGHT 4
CAP_HEIGHT 9
RAW_ASCENT 800
RAW_DESCENT 200
NORM_SPACE 3
RELATIVE_WEIGHT 40
RELATIVE_SETWIDTH 50
SUPERSCRIPT_X 0
SUPERSCRIPT_Y 4
SUPERSCRIPT_SIZE 7
SUBSCRIPT_X 0
SUBSCRIPT_Y 0
SUBSCRIPT_SIZE 7
AVG_LOWERCASE_WIDTH 48
AVG_UPPERCASE_WIDTH 91
ENDPROPERTIES
CHARS 338
STARTCHAR CR
ENCODING 13
SWIDTH 600 0
DWIDTH 7 0
BBX 1 1 0 0
BITMAP
00
ENDCHAR
STARTCHAR space
ENCODING 32
SWIDTH 280 0
DWIDTH 3 0
BBX 1 1 0 0
BITMAP
00
ENDCHAR
STARTCHAR exclam
ENCODING 33
SWIDTH 196 0
DWIDTH 2 0
BBX 2 5 0 0
BITMAP
55
55
55
33
55
ENDCHAR
STARTCHAR quotedbl
ENCODING 34
SWIDTH 302 0
DWIDTH 4 0
BBX 4 2 0 3
BITMAP
5565
3333
ENDCHAR
STARTCHAR numbersign
ENCODING 35
SWIDTH 513 0
DWIDTH 6 0
BBX 6 5 0 0
BITMAP
058693
076563
277551
265671
054650
ENDCHAR
STARTCHAR dollar
ENCODING 36
SWIDTH 379 0
DWIDTH 5 0
BBX 5 6 0 -1
BITMAP
026100
556710
566200
046710
536810
036300
ENDCHAR
STARTCHAR percent
ENCODING 37
SWIDTH 493 0
DWIDTH 6 0
BBX 6 5 0 0
BITMAP
5B5471
556730
006962
047766
1735B4
ENDCHAR
STARTCHAR ampersand
ENCODING 38
SWIDTH 487 0
DWIDTH 6 0
BBX 6 5 0 0
BITMAP
04AA10
066530
056722
466763
2A6770
ENDCHAR
STARTCHAR quotesingle
ENCODING 39
SWIDTH 146 0
DWIDTH 2 0
BBX 2 2 0 3
BITMAP
55
33
ENDCHAR
STARTCHAR parenleft
ENCODING 40
SWIDTH 210 0
DWIDTH 3 0
BBX 3 6 0 0
BITMAP
0410
4700
6600
5500
5600
2810
ENDCHAR
STARTCHAR parenright
ENCODING 41
SWIDTH 210 0
DWIDTH 3 0
BBX 3 6 0 0
BITMAP
3300
4600
1910
0920
3800
5600
ENDCHAR
STARTCHAR asterisk
ENCODING 42
SWIDTH 358 0
DWIDTH 4 0
BBX 4 3 0 2
BITMAP
1542
2313
0642
ENDCHAR
STARTCHAR plus
ENCODING 43
SWIDTH 394 0
DWIDTH 5 0
BBX 5 4 0 1
BITMAP
024000
358310
358310
038000
ENDCHAR
STARTCHAR comma
ENCODING 44
SWIDTH 216 0
DWIDTH 3 0
BBX 2 2 0 0
BITMAP
14
56
ENDCHAR
STARTCHAR hyphen
ENCODING 45
SWIDTH 326 0
DWIDTH 4 0
BBX 4 2 0 2
BITMAP
2552
2552
ENDCHAR
STARTCHAR period
ENCODING 46
SWIDTH 176 0
DWIDTH 2 0
BBX 2 1 0 0
BITMAP
55
ENDCHAR
STARTCHAR slash
ENCODING 47
SWIDTH 298 0
DWIDTH 4 0
BBX 4 5 0 0
BITMAP
0381
0660
0650
2810
6600
ENDCHAR
STARTCHAR zero
ENCODING 48
SWIDTH 306 0
DWIDTH 4 0
BBX 4 5 0 0
BITMAP
4A91
5564
5565
5564
4A91
ENDCHAR
STARTCHAR one
ENCODING 49
SWIDTH 306 0
DWIDTH 4 0
BBX 4 5 0 0
BITMAP
2481
2481
0181
0181
0181
ENDCHAR
STARTCHAR two
ENCODING 50
SWIDTH 299 0
DWIDTH 4 0
BBX 4 5 0 0
BITMAP
4BA0
0363
0760
4420
7BB2
ENDCHAR
STARTCHAR three
ENCODING 51
SWIDTH 324 0
DWIDTH 4 0
BBX 4 5 0 0
BITMAP
3A92
1125
0052
4335
3663
ENDCHAR
STARTCHAR four
ENCODING 52
SWIDTH 339 0
DWIDTH 4 0
BBX 4 5 0 0
BITMAP
0561
0660
3433
4655
4655
ENDCHAR
STARTCHAR five
ENCODING 53
SWIDTH 363 0
DWIDTH 4 0
BBX 4 5 0 0
BITMAP
1AA7
1510
1845
1456
08B4
ENDCHAR
STARTCHAR six
ENCODING 54
SWIDTH 306 0
DWIDTH 4 0
BBX 4 5 0 0
BITMAP
4A91
5532
5650
5654
4A91
ENDCHAR
STARTCHAR seven
ENCODING 55
SWIDTH 298 0
DWIDTH 4 0
BBX 4 5 0 0
BITMAP
3551
3671
0570
0660
0740
ENDCHAR
STARTCHAR eight
ENCODING 56
SWIDTH 306 0
DWIDTH 4 0
BBX 4 5 0 0
BITMAP
3A91
5754
5371
5654
4A91
ENDCHAR
STARTCHAR nine
ENCODING 57
SWIDTH 306 0
DWIDTH 4 0
BBX 4 5 0 0
BITMAP
4A91
6464
2465
2264
4A91
ENDCHAR
STARTCHAR colon
ENCODING 58
SWIDTH 176 0
DWIDTH 2 0
BBX 2 3 0 0
BITMAP
55
00
55
ENDCHAR
STARTCHAR semicolon
ENCODING 59
SWIDTH 217 0
DWIDTH 3 0
BBX 3 4 0 -1
BITMAP
0820
0100
4700
3300
ENDCHAR
STARTCHAR less
ENCODING 60
SWIDTH 450 0
DWIDTH 5 0
BBX 5 5 0 0
BITMAP
000260
005760
266400
036750
000560
ENDCHAR
STARTCHAR equal
ENCODING 61
SWIDTH 344 0
DWIDTH 4 0
BBX 4 4 0 0
BITMAP
3553
3553
3553
3553
ENDCHAR
STARTCHAR greater
ENCODING 62
SWIDTH 450 0
DWIDTH 5 0
BBX 5 5 0 0
BITMAP
360000
377500
017750
377200
360000
ENDCHAR
STARTCHAR question
ENCODING 63
SWIDTH 346 0
DWIDTH 4 0
BBX 4 5 0 0
BITMAP
2AA3
3365
0553
0550
0440
ENDCHAR
STARTCHAR at
ENCODING 64
SWIDTH 490 0
DWIDTH 6 0
BBX 6 5 0 0
BITMAP
069950
464674
584654
465661
069A10
ENDCHAR
STARTCHAR A
ENCODING 65
SWIDTH 798 0
DWIDTH 10 0
BBX 10 10 0 0
BITMAP
0005661000
0006755000
0028766000
0066678100
0068366500
0387047600
0666547820
0784556660
4763555760
6650000782
ENDCHAR
STARTCHAR B
ENCODING 66
SWIDTH 784 0
DWIDTH 9 0
BBX 9 10 0 0
BITMAP
5565556500
5565555340
5565556650
5550005660
5565556730
5565555560
5550001780
5550001880
5565556760
556AAAB700
ENDCHAR
STARTCHAR C
ENCODING 67
SWIDTH 776 0
DWIDTH 9 0
BBX 9 10 0 0
BITMAP
0029BBB830
04A5656650
1964001400
5660000000
5650000000
5650000000
5660000000
1865000400
0485666550
0038BAB830
ENDCHAR
STARTCHAR D
ENCODING 68
SWIDTH 806 0
DWIDTH 10 0
BBX 10 10 0 0
BITMAP
5565566100
5565562610
5565565460
5550006761
5550000674
5550000674
55500006A1
5550006770
5565566A10
556AAB8100
ENDCHAR
STARTCHAR E
ENCODING 69
SWIDTH 677 0
DWIDTH 8 0
BBX 8 10 0 0
BITMAP
55655554
55655554
55655554
55500000
55655550
556BBBB1
55500000
55500000
55655554
556AAAA8
ENDCHAR
STARTCHAR F
ENCODING 70
SWIDTH 677 0
DWIDTH 8 0
BBX 8 10 0 0
BITMAP
55666664
55666664
55666664
55500000
55666660
556BBBB1
55500000
55500000
55500000
55500000
ENDCHAR
STARTCHAR G
ENCODING 71
SWIDTH 872 0
DWIDTH 10 0
BBX 11 10 0 0
BITMAP
0029BBB82000
04A565669300
196400065100
566000000000
565003555510
565003555510
566003555510
186500076600
048565669300
0038BAB72000
ENDCHAR
STARTCHAR H
ENCODING 72
SWIDTH 781 0
DWIDTH 9 0
BBX 9 10 0 0
BITMAP
5550003850
5550003850
5550003850
5550003850
5566665850
556BBB7850
5550003850
5550003850
5550003850
5550003850
ENDCHAR
STARTCHAR I
ENCODING 73
SWIDTH 262 0
DWIDTH 3 0
BBX 3 10 0 0
BITMAP
5550
5550
5550
5550
5550
5550
5550
5550
5550
5550
ENDCHAR
STARTCHAR J
ENCODING 74
SWIDTH 674 0
DWIDTH 8 0
BBX 8 10 0 0
BITMAP
00000555
00000555
00000555
00000555
00000555
00000555
45200555
66600574
29566590
039AB810
ENDCHAR
STARTCHAR K
ENCODING 75
SWIDTH 739 0
DWIDTH 9 0
BBX 9 10 0 0
BITMAP
5550037740
5550077600
5550677000
5552573000
5566640000
5587740000
5555772000
5550677000
5550177600
5550027740
ENDCHAR
STARTCHAR L
ENCODING 76
SWIDTH 604 0
DWIDTH 7 0
BBX 8 10 0 0
BITMAP
55500000
55500000
55500000
55500000
55500000
55500000
55500000
55500000
55655550
556AAAA1
ENDCHAR
STARTCHAR M
ENCODING 77
SWIDTH 909 0
DWIDTH 11 0
BBX 11 10 0 0
BITMAP
555000015650
556600065650
556730465650
556772765650
556777565650
555367615650
555066105650
555004005650
555000005650
555000005650
ENDCHAR
STARTCHAR N
ENCODING 78
SWIDTH 796 0
DWIDTH 10 0
BBX 9 10 0 0
BITMAP
5561000880
5566000880
5567400880
5567710880
5557760880
5552774880
5550573880
5550064880
5550024880
5550001880
ENDCHAR
STARTCHAR O
ENCODING 79
SWIDTH 894 0
DWIDTH 11 0
BBX 11 10 0 0
BITMAP
0029BBB81000
04A565669200
196400067700
566000006920
565000005650
565000005650
566000006820
186500066700
048565659200
0038BAB71000
ENDCHAR
STARTCHAR P
ENCODING 80
SWIDTH 743 0
DWIDTH 9 0
BBX 9 10 0 0
BITMAP
5565556500
5565555340
5565556650
5550005660
5565556720
5565555200
5550000000
5550000000
5550000000
5550000000
ENDCHAR
STARTCHAR Q
ENCODING 81
SWIDTH 911 0
DWIDTH 11 0
BBX 11 10 0 0
BITMAP
0029BBB81000
04A56566A100
196400067700
566000006920
565000005750
565000025750
566000275830
186500577600
048566457830
0038BAB45520
ENDCHAR
STARTCHAR R
ENCODING 82
SWIDTH 745 0
DWIDTH 9 0
BBX 9 10 0 0
BITMAP
5565556500
5565555340
5565556650
5550005660
5565556720
5565556200
5550177100
5550066500
5550047600
5550006740
ENDCHAR
STARTCHAR S
ENCODING 83
SWIDTH 660 0
DWIDTH 8 0
BBX 8 10 0 0
BITMAP
03ABC930
29656592
65600431
66662000
26776630
02666762
00004665
13400656
48555692
04ABBA30
ENDCHAR
STARTCHAR T
ENCODING 84
SWIDTH 641 0
DWIDTH 8 0
BBX 8 10 0 0
BITMAP
55555553
55555553
44455443
00286000
00286000
00286000
00286000
00286000
00286000
00286000
ENDCHAR
STARTCHAR U
ENCODING 85
SWIDTH 702 0
DWIDTH 8 0
BBX 8 10 0 0
BITMAP
55500286
55500286
55500286
55500286
55500286
55500286
55500286
38500566
08666593
018BAA30
ENDCHAR
STARTCHAR V
ENCODING 86
SWIDTH 758 0
DWIDTH 9 0
BBX 9 10 0 0
BITMAP
6650005760
4760006750
0782018810
0665057600
0476067500
0078388100
0066676000
0057645000
0018851000
0006650000
ENDCHAR
STARTCHAR W
ENCODING 87
SWIDTH 972 0
DWIDTH 12 0
BBX 12 10 0 0
BITMAP
665018800674
566047600781
286056623860
078168455660
066587565740
056666673810
038646686600
007843665600
006760566200
006660287000
ENDCHAR
STARTCHAR X
ENCODING 88
SWIDTH 712 0
DWIDTH 9 0
BBX 9 10 0 0
BITMAP
4771057700
0676177400
0277576000
0066662000
0017750000
0036760000
0065775000
0576577000
0775077500
6770037710
ENDCHAR
STARTCHAR Y
ENCODING 89
SWIDTH 769 0
DWIDTH 9 0
BBX 9 10 0 0
BITMAP
6770006770
1775037730
0477277600
0077767100
0027754000
0003330000
0005650000
0005650000
0005650000
0005650000
ENDCHAR
STARTCHAR Z
ENCODING 90
SWIDTH 708 0
DWIDTH 9 0
BBX 9 10 0 0
BITMAP
0555567720
0555577600
0555877000
0001774000
0006760000
0037720000
0077600000
0577000000
1774555300
6778AAA500
ENDCHAR
STARTCHAR bracketleft
ENCODING 91
SWIDTH 320 0
DWIDTH 4 0
BBX 4 6 0 -1
BITMAP
4451
5551
5500
5500
5551
4451
ENDCHAR
STARTCHAR backslash
ENCODING 92
SWIDTH 298 0
DWIDTH 4 0
BBX 4 5 0 0
BITMAP
6600
2810
0650
0660
0381
ENDCHAR
STARTCHAR bracketright
ENCODING 93
SWIDTH 320 0
DWIDTH 4 0
BBX 4 6 0 -1
BITMAP
2452
2474
0074
0074
2474
2452
ENDCHAR
STARTCHAR asciicircum
ENCODING 94
SWIDTH 309 0
DWIDTH 4 0
BBX 3 2 0 3
BITMAP
0620
2770
ENDCHAR
STARTCHAR underscore
ENCODING 95
SWIDTH 472 0
DWIDTH 6 0
BBX 5 2 0 0
BITMAP
255550
255550
ENDCHAR
STARTCHAR grave
ENCODING 96
SWIDTH 195 0
DWIDTH 2 0
BBX 2 1 0 6
BITMAP
25
ENDCHAR
STARTCHAR a
ENCODING 97
SWIDTH 414 0
DWIDTH 5 0
BBX 5 5 0 0
BITMAP
047400
069600
178700
586840
695960
ENDCHAR
STARTCHAR b
ENCODING 98
SWIDTH 423 0
DWIDTH 5 0
BBX 5 5 0 0
BITMAP
575630
575550
575860
550550
59AA40
ENDCHAR
STARTCHAR c
ENCODING 99
SWIDTH 446 0
DWIDTH 5 0
BBX 5 5 0 0
BITMAP
06BA50
570010
550000
570010
06BA50
ENDCHAR
STARTCHAR d
ENCODING 100
SWIDTH 450 0
DWIDTH 5 0
BBX 5 5 0 0
BITMAP
575620
575460
550470
550480
59AA20
ENDCHAR
STARTCHAR e
ENCODING 101
SWIDTH 363 0
DWIDTH 4 0
BBX 5 5 0 0
BITMAP
575510
575510
575400
550000
59AA10
ENDCHAR
STARTCHAR f
ENCODING 102
SWIDTH 365 0
DWIDTH 4 0
BBX 5 5 0 0
BITMAP
575510
575510
575400
550000
550000
ENDCHAR
STARTCHAR g
ENCODING 103
SWIDTH 483 0
DWIDTH 6 0
BBX 6 5 0 0
BITMAP
06BB60
570130
550452
570153
06BB50
ENDCHAR
STARTCHAR h
ENCODING 104
SWIDTH 428 0
DWIDTH 5 0
BBX 5 5 0 0
BITMAP
550550
550550
575850
550550
550550
ENDCHAR
STARTCHAR i
ENCODING 105
SWIDTH 176 0
DWIDTH 2 0
BBX 2 5 0 0
BITMAP
55
55
55
55
55
ENDCHAR
STARTCHAR j
ENCODING 106
SWIDTH 390 0
DWIDTH 5 0
BBX 5 5 0 0
BITMAP
000830
000830
000830
330910
39B600
ENDCHAR
STARTCHAR k
ENCODING 107
SWIDTH 381 0
DWIDTH 5 0
BBX 5 5 0 0
BITMAP
554710
567500
579000
587400
555720
ENDCHAR
STARTCHAR l
ENCODING 108
SWIDTH 330 0
DWIDTH 4 0
BBX 4 5 0 0
BITMAP
5500
5500
5500
5500
59A8
ENDCHAR
STARTCHAR m
ENCODING 109
SWIDTH 501 0
DWIDTH 6 0
BBX 6 5 0 0
BITMAP
591195
587785
567965
553155
550055
ENDCHAR
STARTCHAR n
ENCODING 110
SWIDTH 444 0
DWIDTH 5 0
BBX 5 5 0 0
BITMAP
591460
577460
577960
555960
550960
ENDCHAR
STARTCHAR o
ENCODING 111
SWIDTH 494 0
DWIDTH 6 0
BBX 6 5 0 0
BITMAP
06BB50
570074
550055
570074
06BB50
ENDCHAR
STARTCHAR p
ENCODING 112
SWIDTH 412 0
DWIDTH 5 0
BBX 5 5 0 0
BITMAP
575630
575560
575710
550000
550000
ENDCHAR
STARTCHAR q
ENCODING 113
SWIDTH 494 0
DWIDTH 6 0
BBX 6 5 0 0
BITMAP
06BB50
570083
550055
570476
06BB82
ENDCHAR
STARTCHAR r
ENCODING 114
SWIDTH 412 0
DWIDTH 5 0
BBX 5 5 0 0
BITMAP
575630
575560
577910
554700
550750
ENDCHAR
STARTCHAR s
ENCODING 115
SWIDTH 379 0
DWIDTH 5 0
BBX 5 5 0 0
BITMAP
29B700
566100
451710
027620
4AA800
ENDCHAR
STARTCHAR t
ENCODING 116
SWIDTH 349 0
DWIDTH 4 0
BBX 4 5 0 0
BITMAP
5555
5775
0550
0550
0550
ENDCHAR
STARTCHAR u
ENCODING 117
SWIDTH 400 0
DWIDTH 5 0
BBX 5 5 0 0
BITMAP
550650
550650
550650
560840
19B700
ENDCHAR
STARTCHAR v
ENCODING 118
SWIDTH 394 0
DWIDTH 5 0
BBX 5 5 0 0
BITMAP
660660
561820
188600
068600
058200
ENDCHAR
STARTCHAR w
ENCODING 119
SWIDTH 521 0
DWIDTH 6 0
BBX 6 5 0 0
BITMAP
666638
566B66
478885
089684
069690
ENDCHAR
STARTCHAR x
ENCODING 120
SWIDTH 369 0
DWIDTH 4 0
BBX 5 5 0 0
BITMAP
675710
179500
088100
188600
664710
ENDCHAR
STARTCHAR y
ENCODING 121
SWIDTH 422 0
DWIDTH 5 0
BBX 5 5 0 0
BITMAP
670760
179710
035400
018200
018200
ENDCHAR
STARTCHAR z
ENCODING 122
SWIDTH 409 0
DWIDTH 5 0
BBX 5 5 0 0
BITMAP
355520
004420
027600
177000
7CBA40
ENDCHAR
STARTCHAR braceleft
ENCODING 123
SWIDTH 443 0
DWIDTH 5 0
BBX 5 6 0 -1
BITMAP
005440
007640
247400
247400
007640
005440
ENDCHAR
STARTCHAR bar
ENCODING 124
SWIDTH 196 0
DWIDTH 2 0
BBX 2 6 0 0
BITMAP
33
55
55
55
55
55
ENDCHAR
STARTCHAR braceright
ENCODING 125
SWIDTH 506 0
DWIDTH 6 0
BBX 5 6 1 -1
BITMAP
346000
358000
028320
028320
358000
346000
ENDCHAR
STARTCHAR asciitilde
ENCODING 126
SWIDTH 450 0
DWIDTH 5 0
BBX 5 2 0 1
BITMAP
102530
102530
ENDCHAR
STARTCHAR uni00A0
ENCODING 160
SWIDTH 280 0
DWIDTH 3 0
BBX 1 1 0 0
BITMAP
00
ENDCHAR
STARTCHAR exclamdown
ENCODING 161
SWIDTH 196 0
DWIDTH 2 0
BBX 2 5 0 -1
BITMAP
55
33
55
55
55
ENDCHAR
STARTCHAR cent
ENCODING 162
SWIDTH 305 0
DWIDTH 4 0
BBX 4 6 0 -1
BITMAP
0440
1761
7400
7663
2660
0440
ENDCHAR
STARTCHAR sterling
ENCODING 163
SWIDTH 408 0
DWIDTH 5 0
BBX 5 5 0 0
BITMAP
4BB500
768300
566300
230000
ABBB60
ENDCHAR
STARTCHAR currency
ENCODING 164
SWIDTH 401 0
DWIDTH 5 0
BBX 5 5 0 0
BITMAP
030300
457530
073600
457430
030300
ENDCHAR
STARTCHAR yen
ENCODING 165
SWIDTH 423 0
DWIDTH 5 0
BBX 5 5 0 0
BITMAP
671760
179710
035400
238420
238420
ENDCHAR
STARTCHAR brokenbar
ENCODING 166
SWIDTH 196 0
DWIDTH 2 0
BBX 2 6 0 0
BITMAP
11
55
55
11
55
55
ENDCHAR
STARTCHAR section
ENCODING 167
SWIDTH 322 0
DWIDTH 4 0
BBX 4 6 0 -1
BITMAP
0300
6772
5965
3883
3575
2651
ENDCHAR
STARTCHAR dieresis
ENCODING 168
SWIDTH 287 0
DWIDTH 3 0
BBX 3 1 0 6
BITMAP
4490
ENDCHAR
STARTCHAR copyright
ENCODING 169
SWIDTH 493 0
DWIDTH 6 0
BBX 6 6 0 0
BITMAP
035520
350062
606506
634006
356552
035520
ENDCHAR
STARTCHAR ordfeminine
ENCODING 170
SWIDTH 331 0
DWIDTH 4 0
BBX 4 3 0 2
BITMAP
0770
1AA0
4884
ENDCHAR
STARTCHAR guillemotleft
ENCODING 171
SWIDTH 298 0
DWIDTH 4 0
BBX 4 3 0 1
BITMAP
1450
3351
1450
ENDCHAR
STARTCHAR logicalnot
ENCODING 172
SWIDTH 420 0
DWIDTH 5 0
BBX 5 3 0 0
BITMAP
355530
355530
000560
ENDCHAR
STARTCHAR uni00AD
ENCODING 173
SWIDTH 326 0
DWIDTH 4 0
BBX 4 2 0 2
BITMAP
2552
2552
ENDCHAR
STARTCHAR registered
ENCODING 174
SWIDTH 493 0
DWIDTH 6 0
BBX 6 6 0 0
BITMAP
035520
350062
608706
608806
351152
035520
ENDCHAR
STARTCHAR macron
ENCODING 175
SWIDTH 331 0
DWIDTH 4 0
BBX 4 1 0 6
BITMAP
2552
ENDCHAR
STARTCHAR degree
ENCODING 176
SWIDTH 298 0
DWIDTH 4 0
BBX 3 3 0 2
BITMAP
1650
5360
1650
ENDCHAR
STARTCHAR plusminus
ENCODING 177
SWIDTH 418 0
DWIDTH 5 0
BBX 5 5 0 0
BITMAP
019100
249420
249420
003000
5AAA50
ENDCHAR
STARTCHAR uni00B2
ENCODING 178
SWIDTH 233 0
DWIDTH 3 0
BBX 3 3 0 2
BITMAP
2510
1510
3710
ENDCHAR
STARTCHAR uni00B3
ENCODING 179
SWIDTH 228 0
DWIDTH 3 0
BBX 3 3 0 2
BITMAP
2510
0110
2810
ENDCHAR
STARTCHAR acute
ENCODING 180
SWIDTH 195 0
DWIDTH 2 0
BBX 2 1 0 6
BITMAP
25
ENDCHAR
STARTCHAR uni00B5
ENCODING 181
SWIDTH 506 0
DWIDTH 6 0
BBX 6 7 0 -2
BITMAP
550550
550550
550550
550640
55A865
550000
330000
ENDCHAR
STARTCHAR paragraph
ENCODING 182
SWIDTH 435 0
DWIDTH 5 0
BBX 5 5 0 0
BITMAP
465530
667750
276550
005550
005550
ENDCHAR
STARTCHAR periodcentered
ENCODING 183
SWIDTH 176 0
DWIDTH 2 0
BBX 2 1 0 2
BITMAP
55
ENDCHAR
STARTCHAR cedilla
ENCODING 184
SWIDTH 261 0
DWIDTH 3 0
BBX 3 3 0 -2
BITMAP
0100
1830
1530
ENDCHAR
STARTCHAR uni00B9
ENCODING 185
SWIDTH 218 0
DWIDTH 3 0
BBX 2 3 0 2
BITMAP
27
27
07
ENDCHAR
STARTCHAR ordmasculine
ENCODING 186
SWIDTH 335 0
DWIDTH 4 0
BBX 4 3 0 2
BITMAP
1992
5435
1992
ENDCHAR
STARTCHAR guillemotright
ENCODING 187
SWIDTH 298 0
DWIDTH 4 0
BBX 4 3 0 1
BITMAP
3250
3451
3250
ENDCHAR
STARTCHAR onequarter
ENCODING 188
SWIDTH 429 0
DWIDTH 5 0
BBX 5 6 0 -1
BITMAP
210110
070720
074500
017630
063570
020010
ENDCHAR
STARTCHAR onehalf
ENCODING 189
SWIDTH 437 0
DWIDTH 5 0
BBX 5 6 0 0
BITMAP
110110
370710
074400
017240
053240
050330
ENDCHAR
STARTCHAR threequarters
ENCODING 190
SWIDTH 409 0
DWIDTH 5 0
BBX 5 6 0 -1
BITMAP
130410
153600
347100
045710
071650
110010
ENDCHAR
STARTCHAR questiondown
ENCODING 191
SWIDTH 346 0
DWIDTH 4 0
BBX 4 5 0 -1
BITMAP
0440
0540
2740
5654
1661
ENDCHAR
STARTCHAR Agrave
ENCODING 192
SWIDTH 798 0
DWIDTH 10 0
BBX 10 14 0 0
BITMAP
0014100000
0006600000
0002730000
0000000000
0005661000
0006755000
0028766000
0066678100
0068366500
0387047600
0666547820
0784556660
4763555760
6650000782
ENDCHAR
STARTCHAR Aacute
ENCODING 193
SWIDTH 798 0
DWIDTH 10 0
BBX 10 14 0 0
BITMAP
0000033000
0000076000
0000571000
0000000000
0005661000
0006755000
0028766000
0066678100
0068366500
0387047600
0666547820
0784556660
4763555760
6650000782
ENDCHAR
STARTCHAR Acircumflex
ENCODING 194
SWIDTH 798 0
DWIDTH 10 0
BBX 10 14 0 0
BITMAP
0002310000
0007762000
0067177000
0000000000
0005661000
0006755000
0028766000
0066678100
0068366500
0387047600
0666547820
0784556660
4763555760
6650000782
ENDCHAR
STARTCHAR Atilde
ENCODING 195
SWIDTH 798 0
DWIDTH 10 0
BBX 10 12 0 0
BITMAP
0016503000
0040165000
0005661000
0006755000
0028766000
0066678100
0068366500
0387047600
0666547820
0784556660
4763555760
6650000782
ENDCHAR
STARTCHAR Adieresis
ENCODING 196
SWIDTH 798 0
DWIDTH 10 0
BBX 10 13 0 0
BITMAP
0056136200
0061560600
0056136200
0005661000
0006755000
0028766000
0066678100
0068366500
0387047600
0666547820
0784556660
4763555760
6650000782
ENDCHAR
STARTCHAR Aring
ENCODING 197
SWIDTH 798 0
DWIDTH 10 0
BBX 10 13 0 0
BITMAP
0001750000
0006160000
0001750000
0005661000
0006755000
0028766000
0066678100
0068366500
0387047600
0666547820
0784556660
4763555760
6650000782
ENDCHAR
STARTCHAR AE
ENCODING 198
SWIDTH 1078 0
DWIDTH 13 0
BBX 13 10 0 0
BITMAP
00000685555530
00004576555530
00006567555530
00056665000000
00167765555500
005663859BBA00
01674286000000
06664388000000
17765479100000
666000587AAA60
ENDCHAR
STARTCHAR Ccedilla
ENCODING 199
SWIDTH 776 0
DWIDTH 9 0
BBX 9 13 0 -3
BITMAP
0029BBB830
04A5656650
1964001400
5660000000
5650000000
5650000000
5660000000
1865000400
0485666550
0038EAB830
0001960000
0000051000
0003650000
ENDCHAR
STARTCHAR Egrave
ENCODING 200
SWIDTH 677 0
DWIDTH 8 0
BBX 8 14 0 0
BITMAP
00033000
00037300
00006600
00000000
55655554
55655554
55655554
55500000
55655550
556BBBB1
55500000
55500000
55655554
556AAAA8
ENDCHAR
STARTCHAR Eacute
ENCODING 201
SWIDTH 677 0
DWIDTH 8 0
BBX 8 14 0 0
BITMAP
00003300
00017500
00067000
00000000
55655554
55655554
55655554
55500000
55655550
556BBBB1
55500000
55500000
55655554
556AAAA8
ENDCHAR
STARTCHAR Ecircumflex
ENCODING 202
SWIDTH 677 0
DWIDTH 8 0
BBX 8 14 0 0
BITMAP
00033100
00177610
00770770
00000000
55655554
55655554
55655554
55500000
55655550
556BBBB1
55500000
55500000
55655554
556AAAA8
ENDCHAR
STARTCHAR Edieresis
ENCODING 203
SWIDTH 677 0
DWIDTH 8 0
BBX 8 13 0 0
BITMAP
00660461
01543606
00660461
55655554
55655554
55655554
55500000
55655550
556BBBB1
55500000
55500000
55655554
556AAAA8
ENDCHAR
STARTCHAR Igrave
ENCODING 204
SWIDTH 262 0
DWIDTH 3 0
BBX 4 14 -1 0
BITMAP
3300
2740
0670
0000
0555
0555
0555
0555
0555
0555
0555
0555
0555
0555
ENDCHAR
STARTCHAR Iacute
ENCODING 205
SWIDTH 262 0
DWIDTH 3 0
BBX 4 14 0 0
BITMAP
0033
0372
0760
0000
5550
5550
5550
5550
5550
5550
5550
5550
5550
5550
ENDCHAR
STARTCHAR Icircumflex
ENCODING 206
SWIDTH 262 0
DWIDTH 3 0
BBX 5 14 -1 0
BITMAP
033000
276600
771760
000000
055500
055500
055500
055500
055500
055500
055500
055500
055500
055500
ENDCHAR
STARTCHAR Idieresis
ENCODING 207
SWIDTH 262 0
DWIDTH 3 0
BBX 7 13 -2 0
BITMAP
06605610
34516150
06505610
00555000
00555000
00555000
00555000
00555000
00555000
00555000
00555000
00555000
00555000
ENDCHAR
STARTCHAR Eth
ENCODING 208
SWIDTH 856 0
DWIDTH 10 0
BBX 10 10 0 0
BITMAP
0694556400
0694555360
0694555744
0341002666
5555500486
9BBBA00187
0341000476
0692002694
0694555970
0696AAA500
ENDCHAR
STARTCHAR Ntilde
ENCODING 209
SWIDTH 796 0
DWIDTH 10 0
BBX 9 12 0 0
BITMAP
0026504000
0040265000
5561000880
5566000880
5567400880
5567710880
5557760880
5552774880
5550573880
5550064880
5550024880
5550001880
ENDCHAR
STARTCHAR Ograve
ENCODING 210
SWIDTH 894 0
DWIDTH 11 0
BBX 11 14 0 0
BITMAP
000330000000
000273000000
000067000000
000000000000
0029BBB81000
04A565669200
196400067700
566000006920
565000005650
565000005650
566000006820
186500066700
048565659200
0038BAB71000
ENDCHAR
STARTCHAR Oacute
ENCODING 211
SWIDTH 894 0
DWIDTH 11 0
BBX 11 14 0 0
BITMAP
000001410000
000006600000
000037300000
000000000000
0029BBB81000
04A565669200
196400067700
566000006920
565000005650
565000005650
566000006820
186500066700
048565659200
0038BAB71000
ENDCHAR
STARTCHAR Ocircumflex
ENCODING 212
SWIDTH 894 0
DWIDTH 11 0
BBX 11 14 0 0
BITMAP
000043000000
000475600000
001762750000
000000000000
0029BBB81000
04A565669200
196400067700
566000006920
565000005650
565000005650
566000006820
186500066700
048565659200
0038BAB71000
ENDCHAR
STARTCHAR Otilde
ENCODING 213
SWIDTH 894 0
DWIDTH 11 0
BBX 11 12 0 0
BITMAP
000462040000
000404620000
0029BBB81000
04A565669200
196400067700
566000006920
565000005650
565000005650
566000006820
186500066700
048565659200
0038BAB71000
ENDCHAR
STARTCHAR Odieresis
ENCODING 214
SWIDTH 894 0
DWIDTH 11 0
BBX 11 13 0 0
BITMAP
001640660000
006162452000
001640660000
0029BBB81000
04A565669200
196400067700
566000006920
565000005650
565000005650
566000006820
186500066700
048565659200
0038BAB71000
ENDCHAR
STARTCHAR multiply
ENCODING 215
SWIDTH 370 0
DWIDTH 4 0
BBX 4 4 0 0
BITMAP
2554
0673
2765
0112
ENDCHAR
STARTCHAR Oslash
ENCODING 216
SWIDTH 894 0
DWIDTH 11 0
BBX 11 10 0 0
BITMAP
0029BB938300
03A565297300
196400776500
566004963820
565149545650
565686405650
665880006920
258920066700
069535669100
0551AAB71000
ENDCHAR
STARTCHAR Ugrave
ENCODING 217
SWIDTH 702 0
DWIDTH 8 0
BBX 8 14 0 0
BITMAP
00330000
00570000
00076000
00000000
55500286
55500286
55500286
55500286
55500286
55500286
55500286
38500566
08666593
018BAA30
ENDCHAR
STARTCHAR Uacute
ENCODING 218
SWIDTH 702 0
DWIDTH 8 0
BBX 8 14 0 0
BITMAP
00001420
00006700
00027300
00000000
55500286
55500286
55500286
55500286
55500286
55500286
55500286
38500566
08666593
018BAA30
ENDCHAR
STARTCHAR Ucircumflex
ENCODING 219
SWIDTH 702 0
DWIDTH 8 0
BBX 8 14 0 0
BITMAP
00033000
00574600
03743730
00000000
55500286
55500286
55500286
55500286
55500286
55500286
55500286
38500566
08666593
018BAA30
ENDCHAR
STARTCHAR Udieresis
ENCODING 220
SWIDTH 702 0
DWIDTH 8 0
BBX 8 13 0 0
BITMAP
02631650
06064260
02631650
55500286
55500286
55500286
55500286
55500286
55500286
55500286
38500566
08666593
018BAA30
ENDCHAR
STARTCHAR Yacute
ENCODING 221
SWIDTH 769 0
DWIDTH 9 0
BBX 9 14 0 0
BITMAP
0000033000
0000372000
0000760000
0000000000
6770006770
1775037730
0477277600
0077767100
0027754000
0003330000
0005650000
0005650000
0005650000
0005650000
ENDCHAR
STARTCHAR Thorn
ENCODING 222
SWIDTH 743 0
DWIDTH 9 0
BBX 9 10 0 0
BITMAP
5550000000
5550000000
5566666200
5566666620
5550005560
5566665760
5566666620
5566666300
5550000000
5550000000
ENDCHAR
STARTCHAR germandbls
ENCODING 223
SWIDTH 424 0
DWIDTH 5 0
BBX 5 5 0 0
BITMAP
265620
545450
553860
550550
558A40
ENDCHAR
STARTCHAR agrave
ENCODING 224
SWIDTH 414 0
DWIDTH 5 0
BBX 5 7 0 0
BITMAP
015000
000000
047400
069600
178700
586840
695960
ENDCHAR
STARTCHAR aacute
ENCODING 225
SWIDTH 414 0
DWIDTH 5 0
BBX 5 7 0 0
BITMAP
003400
000000
047400
069600
178700
586840
695960
ENDCHAR
STARTCHAR acircumflex
ENCODING 226
SWIDTH 414 0
DWIDTH 5 0
BBX 5 7 0 0
BITMAP
044300
000000
047400
069600
178700
586840
695960
ENDCHAR
STARTCHAR atilde
ENCODING 227
SWIDTH 414 0
DWIDTH 5 0
BBX 5 6 0 0
BITMAP
013400
047400
069600
178700
586840
695960
ENDCHAR
STARTCHAR adieresis
ENCODING 228
SWIDTH 414 0
DWIDTH 5 0
BBX 5 7 0 0
BITMAP
073700
000000
047400
069600
178700
586840
695960
ENDCHAR
STARTCHAR aring
ENCODING 229
SWIDTH 414 0
DWIDTH 5 0
BBX 5 7 0 0
BITMAP
005100
006100
047400
069600
178700
586840
695960
ENDCHAR
STARTCHAR ae
ENCODING 230
SWIDTH 593 0
DWIDTH 7 0
BBX 7 5 0 0
BITMAP
00696550
017A7550
06978530
27765000
6957AA90
ENDCHAR
STARTCHAR ccedilla
ENCODING 231
SWIDTH 446 0
DWIDTH 5 0
BBX 5 7 0 -2
BITMAP
06BA50
570010
550000
570010
06CA50
007400
005400
ENDCHAR
STARTCHAR egrave
ENCODING 232
SWIDTH 363 0
DWIDTH 4 0
BBX 5 7 0 0
BITMAP
024000
000000
575510
575510
575400
550000
59AA10
ENDCHAR
STARTCHAR eacute
ENCODING 233
SWIDTH 363 0
DWIDTH 4 0
BBX 5 7 0 0
BITMAP
003300
000000
575510
575510
575400
550000
59AA10
ENDCHAR
STARTCHAR ecircumflex
ENCODING 234
SWIDTH 363 0
DWIDTH 4 0
BBX 5 7 0 0
BITMAP
044200
000000
575510
575510
575400
550000
59AA10
ENDCHAR
STARTCHAR edieresis
ENCODING 235
SWIDTH 363 0
DWIDTH 4 0
BBX 5 7 0 0
BITMAP
073700
000000
575510
575510
575400
550000
59AA10
ENDCHAR
STARTCHAR igrave
ENCODING 236
SWIDTH 176 0
DWIDTH 2 0
BBX 2 7 0 0
BITMAP
61
00
55
55
55
55
55
ENDCHAR
STARTCHAR iacute
ENCODING 237
SWIDTH 176 0
DWIDTH 2 0
BBX 2 7 0 0
BITMAP
06
00
55
55
55
55
55
ENDCHAR
STARTCHAR icircumflex
ENCODING 238
SWIDTH 176 0
DWIDTH 2 0
BBX 2 7 0 0
BITMAP
64
00
55
55
55
55
55
ENDCHAR
STARTCHAR idieresis
ENCODING 239
SWIDTH 176 0
DWIDTH 2 0
BBX 3 7 0 0
BITMAP
8710
0000
5500
5500
5500
5500
5500
ENDCHAR
STARTCHAR eth
ENCODING 240
SWIDTH 455 0
DWIDTH 5 0
BBX 6 5 0 0
BITMAP
575620
465560
552371
550390
59AA20
ENDCHAR
STARTCHAR ntilde
ENCODING 241
SWIDTH 444 0
DWIDTH 5 0
BBX 5 6 0 0
BITMAP
012500
591460
577460
577960
555960
550960
ENDCHAR
STARTCHAR ograve
ENCODING 242
SWIDTH 494 0
DWIDTH 6 0
BBX 6 7 0 0
BITMAP
006000
000000
06BB50
570074
550055
570074
06BB50
ENDCHAR
STARTCHAR oacute
ENCODING 243
SWIDTH 494 0
DWIDTH 6 0
BBX 6 7 0 0
BITMAP
001600
000000
06BB50
570074
550055
570074
06BB50
ENDCHAR
STARTCHAR ocircumflex
ENCODING 244
SWIDTH 494 0
DWIDTH 6 0
BBX 6 7 0 0
BITMAP
016400
000000
06BB50
570074
550055
570074
06BB50
ENDCHAR
STARTCHAR otilde
ENCODING 245
SWIDTH 494 0
DWIDTH 6 0
BBX 6 6 0 0
BITMAP
010510
06BB50
570074
550055
570074
06BB50
ENDCHAR
STARTCHAR odieresis
ENCODING 246
SWIDTH 494 0
DWIDTH 6 0
BBX 6 7 0 0
BITMAP
017800
000000
06BB50
570074
550055
570074
06BB50
ENDCHAR
STARTCHAR divide
ENCODING 247
SWIDTH 418 0
DWIDTH 5 0
BBX 5 5 0 0
BITMAP
006000
006000
255520
255520
007000
ENDCHAR
STARTCHAR oslash
ENCODING 248
SWIDTH 494 0
DWIDTH 6 0
BBX 6 5 0 0
BITMAP
06B672
470556
554355
654084
266B50
ENDCHAR
STARTCHAR ugrave
ENCODING 249
SWIDTH 400 0
DWIDTH 5 0
BBX 5 7 0 0
BITMAP
033000
000000
550650
550650
550650
560840
19B700
ENDCHAR
STARTCHAR uacute
ENCODING 250
SWIDTH 400 0
DWIDTH 5 0
BBX 5 7 0 0
BITMAP
005100
000000
550650
550650
550650
560840
19B700
ENDCHAR
STARTCHAR ucircumflex
ENCODING 251
SWIDTH 400 0
DWIDTH 5 0
BBX 5 7 0 0
BITMAP
054200
000000
550650
550650
550650
560840
19B700
ENDCHAR
STARTCHAR udieresis
ENCODING 252
SWIDTH 400 0
DWIDTH 5 0
BBX 5 7 0 0
BITMAP
083600
000000
550650
550650
550650
560840
19B700
ENDCHAR
STARTCHAR yacute
ENCODING 253
SWIDTH 422 0
DWIDTH 5 0
BBX 5 7 0 0
BITMAP
004200
000000
670760
179710
035400
018200
018200
ENDCHAR
STARTCHAR thorn
ENCODING 254
SWIDTH 412 0
DWIDTH 5 0
BBX 5 5 0 0
BITMAP
550000
586610
550560
586720
550000
ENDCHAR
STARTCHAR ydieresis
ENCODING 255
SWIDTH 422 0
DWIDTH 5 0
BBX 5 7 0 0
BITMAP
073700
000000
670760
179710
035400
018200
018200
ENDCHAR
STARTCHAR Edotaccent
ENCODING 278
SWIDTH 677 0
DWIDTH 8 0
BBX 8 12 0 0
BITMAP
0000A100
00000000
55655554
55655554
55655554
55500000
55655550
556BBBB1
55500000
55500000
55655554
556AAAA8
ENDCHAR
STARTCHAR edotaccent
ENCODING 279
SWIDTH 363 0
DWIDTH 4 0
BBX 5 7 0 0
BITMAP
00B000
000000
575510
575510
575400
550000
59AA10
ENDCHAR
STARTCHAR dotlessi
ENCODING 305
SWIDTH 176 0
DWIDTH 2 0
BBX 2 5 0 0
BITMAP
55
55
55
55
55
ENDCHAR
STARTCHAR OE
ENCODING 338
SWIDTH 1221 0
DWIDTH 15 0
BBX 15 10 0 0
BITMAP
0026554003555520
0444554003555520
1565654003555520
5563000000000000
6660000003555300
6650000005BBB700
5660000000000000
1A64000000000000
04A5654003555520
0039BA7005AAAA30
ENDCHAR
STARTCHAR oe
ENCODING 339
SWIDTH 637 0
DWIDTH 8 0
BBX 8 5 0 0
BITMAP
06540552
53640552
56000550
57000000
07B81AA4
ENDCHAR
STARTCHAR Wcircumflex
ENCODING 372
SWIDTH 972 0
DWIDTH 12 0
BBX 12 14 0 0
BITMAP
000024200000
000077620000
000671670000
000000000000
665018800674
566047600781
286056623860
078168455660
066587565740
056666673810
038646686600
007843665600
006760566200
006660287000
ENDCHAR
STARTCHAR wcircumflex
ENCODING 373
SWIDTH 521 0
DWIDTH 6 0
BBX 6 7 0 0
BITMAP
006400
000000
666638
566B66
478885
089684
069690
ENDCHAR
STARTCHAR Ycircumflex
ENCODING 374
SWIDTH 769 0
DWIDTH 9 0
BBX 9 14 0 0
BITMAP
0003300000
0017761000
0077076000
0000000000
6770006770
1775037730
0477277600
0077767100
0027754000
0003330000
0005650000
0005650000
0005650000
0005650000
ENDCHAR
STARTCHAR ycircumflex
ENCODING 375
SWIDTH 422 0
DWIDTH 5 0
BBX 5 7 0 0
BITMAP
044300
000000
670760
179710
035400
018200
018200
ENDCHAR
STARTCHAR Ydieresis
ENCODING 376
SWIDTH 769 0
DWIDTH 9 0
BBX 9 13 0 0
BITMAP
0066056100
0244261600
0066046100
6770006770
1775037730
0477277600
0077767100
0027754000
0003330000
0005650000
0005650000
0005650000
0005650000
ENDCHAR
STARTCHAR circumflex
ENCODING 710
SWIDTH 298 0
DWIDTH 4 0
BBX 3 1 0 6
BITMAP
1640
ENDCHAR
STARTCHAR dotaccent
ENCODING 729
SWIDTH 212 0
DWIDTH 3 0
BBX 2 1 0 6
BITMAP
29
ENDCHAR
STARTCHAR ring
ENCODING 730
SWIDTH 212 0
DWIDTH 3 0
BBX 2 2 0 5
BITMAP
24
24
ENDCHAR
STARTCHAR tilde
ENCODING 732
SWIDTH 329 0
DWIDTH 4 0
BBX 4 1 0 5
BITMAP
1051
ENDCHAR
STARTCHAR gravecomb
ENCODING 768
SWIDTH 0 0
DWIDTH 0 0
BBX 2 1 0 6
BITMAP
25
ENDCHAR
STARTCHAR acutecomb
ENCODING 769
SWIDTH 0 0
DWIDTH 0 0
BBX 2 1 0 6
BITMAP
25
ENDCHAR
STARTCHAR uni0302
ENCODING 770
SWIDTH 0 0
DWIDTH 0 0
BBX 3 1 0 6
BITMAP
1640
ENDCHAR
STARTCHAR tildecomb
ENCODING 771
SWIDTH 0 0
DWIDTH 0 0
BBX 4 1 0 5
BITMAP
1051
ENDCHAR
STARTCHAR uni0307
ENCODING 775
SWIDTH 0 0
DWIDTH 0 0
BBX 2 1 0 6
BITMAP
29
ENDCHAR
STARTCHAR uni0308
ENCODING 776
SWIDTH 0 0
DWIDTH 0 0
BBX 3 1 0 6
BITMAP
4490
ENDCHAR
STARTCHAR uni030A
ENCODING 778
SWIDTH 0 0
DWIDTH 0 0
BBX 2 2 0 5
BITMAP
24
24
ENDCHAR
STARTCHAR uni0327
ENCODING 807
SWIDTH 0 0
DWIDTH 0 0
BBX 3 3 0 -2
BITMAP
0100
1830
1530
ENDCHAR
STARTCHAR Wgrave
ENCODING 7808
SWIDTH 972 0
DWIDTH 12 0
BBX 12 14 0 0
BITMAP
000033000000
000017500000
000005710000
000000000000
665018800674
566047600781
286056623860
078168455660
066587565740
056666673810
038646686600
007843665600
006760566200
006660287000
ENDCHAR
STARTCHAR wgrave
ENCODING 7809
SWIDTH 521 0
DWIDTH 6 0
BBX 6 7 0 0
BITMAP
002400
000000
666638
566B66
478885
089684
069690
ENDCHAR
STARTCHAR Wacute
ENCODING 7810
SWIDTH 972 0
DWIDTH 12 0
BBX 12 14 0 0
BITMAP
000002400000
000006600000
000047100000
000000000000
665018800674
566047600781
286056623860
078168455660
066587565740
056666673810
038646686600
007843665600
006760566200
006660287000
ENDCHAR
STARTCHAR wacute
ENCODING 7811
SWIDTH 521 0
DWIDTH 6 0
BBX 6 7 0 0
BITMAP
002400
000000
666638
566B66
478885
089684
069690
ENDCHAR
STARTCHAR Wdieresis
ENCODING 7812
SWIDTH 972 0
DWIDTH 12 0
BBX 12 13 0 0
BITMAP
000561363000
000615606000
000561362000
665018800674
566047600781
286056623860
078168455660
066587565740
056666673810
038646686600
007843665600
006760566200
006660287000
ENDCHAR
STARTCHAR wdieresis
ENCODING 7813
SWIDTH 521 0
DWIDTH 6 0
BBX 6 7 0 0
BITMAP
009620
000000
666638
566B66
478885
089684
069690
ENDCHAR
STARTCHAR uni1E9E
ENCODING 7838
SWIDTH 784 0
DWIDTH 9 0
BBX 9 10 0 0
BITMAP
5565555500
5565555500
5564477700
5550077400
5550677410
5552775660
5550002870
5550001880
5552556660
5554AAB810
ENDCHAR
STARTCHAR Ygrave
ENCODING 7922
SWIDTH 769 0
DWIDTH 9 0
BBX 9 14 0 0
BITMAP
0003300000
0003720000
0000660000
0000000000
6770006770
1775037730
0477277600
0077767100
0027754000
0003330000
0005650000
0005650000
0005650000
0005650000
ENDCHAR
STARTCHAR ygrave
ENCODING 7923
SWIDTH 422 0
DWIDTH 5 0
BBX 5 7 0 0
BITMAP
006000
000000
670760
179710
035400
018200
018200
ENDCHAR
STARTCHAR endash
ENCODING 8211
SWIDTH 507 0
DWIDTH 6 0
BBX 6 2 0 2
BITMAP
255553
255553
ENDCHAR
STARTCHAR emdash
ENCODING 8212
SWIDTH 552 0
DWIDTH 7 0
BBX 6 2 0 2
BITMAP
255555
255555
ENDCHAR
STARTCHAR quoteleft
ENCODING 8216
SWIDTH 146 0
DWIDTH 2 0
BBX 2 2 0 3
BITMAP
51
33
ENDCHAR
STARTCHAR quoteright
ENCODING 8217
SWIDTH 146 0
DWIDTH 2 0
BBX 2 2 0 3
BITMAP
55
03
ENDCHAR
STARTCHAR quotesinglbase
ENCODING 8218
SWIDTH 146 0
DWIDTH 2 0
BBX 2 2 0 -2
BITMAP
55
05
ENDCHAR
STARTCHAR quotedblleft
ENCODING 8220
SWIDTH 297 0
DWIDTH 4 0
BBX 4 2 0 3
BITMAP
5161
3342
ENDCHAR
STARTCHAR quotedblright
ENCODING 8221
SWIDTH 297 0
DWIDTH 4 0
BBX 4 2 0 3
BITMAP
5564
0312
ENDCHAR
STARTCHAR quotedblbase
ENCODING 8222
SWIDTH 297 0
DWIDTH 4 0
BBX 4 2 0 -2
BITMAP
5564
0514
ENDCHAR
STARTCHAR bullet
ENCODING 8226
SWIDTH 302 0
DWIDTH 4 0
BBX 3 3 0 1
BITMAP
1750
5170
1750
ENDCHAR
STARTCHAR ellipsis
ENCODING 8230
SWIDTH 528 0
DWIDTH 6 0
BBX 6 1 0 0
BITMAP
555546
ENDCHAR
STARTCHAR guilsinglleft
ENCODING 8249
SWIDTH 178 0
DWIDTH 2 0
BBX 2 3 0 1
BITMAP
14
33
14
ENDCHAR
STARTCHAR guilsinglright
ENCODING 8250
SWIDTH 178 0
DWIDTH 2 0
BBX 2 3 0 1
BITMAP
32
33
32
ENDCHAR
STARTCHAR fraction
ENCODING 8260
SWIDTH 362 0
DWIDTH 4 0
BBX 4 5 0 0
BITMAP
0057
0175
0670
1740
6600
ENDCHAR
STARTCHAR uni2074
ENCODING 8308
SWIDTH 204 0
DWIDTH 2 0
BBX 3 3 0 2
BITMAP
3500
1200
5710
ENDCHAR
STARTCHAR Euro
ENCODING 8364
SWIDTH 462 0
DWIDTH 6 0
BBX 5 5 0 0
BITMAP
05BA60
152020
554000
153030
05AA60
ENDCHAR
STARTCHAR trademark
ENCODING 8482
SWIDTH 461 0
DWIDTH 6 0
BBX 6 3 0 3
BITMAP
CD6381
135771
145051
ENDCHAR
STARTCHAR minus
ENCODING 8722
SWIDTH 420 0
DWIDTH 5 0
BBX 5 2 0 2
BITMAP
7DDD70
7DDD70
ENDCHAR
STARTCHAR uni2215
ENCODING 8725
SWIDTH 278 0
DWIDTH 3 0
BBX 4 5 0 0
BITMAP
0381
0660
0650
2810
6600
ENDCHAR
STARTCHAR .notdef
ENCODING -1
SWIDTH 500 0
DWIDTH 6 0
BBX 6 14 0 -3
BITMAP
5A99A5
630036
630036
630036
630036
630036
630036
630036
630036
630036
630036
630036
630036
5A99A5
ENDCHAR
STARTCHAR NULL
ENCODING -1
SWIDTH 600 0
DWIDTH 7 0
BBX 1 1 0 0
BITMAP
00
ENDCHAR
STARTCHAR acutecomb.case
ENCODING -1
SWIDTH 0 0
DWIDTH 0 0
BBX 4 3 0 11
BITMAP
0142
0670
2740
ENDCHAR
STARTCHAR ampersand.case
ENCODING -1
SWIDTH 797 0
DWIDTH 10 0
BBX 9 10 0 0
BITMAP
004AA92000
0195667000
0476088000
0278687000
0177852000
2756860400
6764686750
5650677530
4855377700
05AA937740
ENDCHAR
STARTCHAR asciicircum.case
ENCODING -1
SWIDTH 540 0
DWIDTH 6 0
BBX 7 5 0 5
BITMAP
00350000
00663000
04757000
07517500
67005710
ENDCHAR
STARTCHAR asciitilde.case
ENCODING -1
SWIDTH 640 0
DWIDTH 8 0
BBX 8 3 0 4
BITMAP
16550021
46568691
15569A60
ENDCHAR
STARTCHAR asterisk.case
ENCODING -1
SWIDTH 482 0
DWIDTH 6 0
BBX 5 5 0 5
BITMAP
005500
262360
150150
065650
011200
ENDCHAR
STARTCHAR at.case
ENCODING -1
SWIDTH 915 0
DWIDTH 11 0
BBX 11 10 0 0
BITMAP
0018BBB92000
02A500029400
075055742910
380755950650
661730650650
661730660650
380655946530
076056665400
029500040000
0018BAB60000
ENDCHAR
STARTCHAR backslash.case
ENCODING -1
SWIDTH 504 0
DWIDTH 6 0
BBX 6 11 0 -1
BITMAP
675000
576000
188100
067500
057600
018810
006650
005760
001881
000665
000476
ENDCHAR
STARTCHAR bar.case
ENCODING -1
SWIDTH 262 0
DWIDTH 3 0
BBX 3 11 0 -1
BITMAP
5550
5550
5550
5550
5550
5550
5550
5550
5550
5550
5550
ENDCHAR
STARTCHAR braceleft.case
ENCODING -1
SWIDTH 504 0
DWIDTH 6 0
BBX 6 12 0 -1
BITMAP
005632
008832
008832
008800
008800
238800
478800
008800
008800
008800
008865
005632
ENDCHAR
STARTCHAR braceright.case
ENCODING -1
SWIDTH 506 0
DWIDTH 6 0
BBX 6 12 0 -1
BITMAP
245600
477800
007800
007800
007800
007865
007833
007800
007800
247800
247800
245600
ENDCHAR
STARTCHAR bracketleft.case
ENCODING -1
SWIDTH 453 0
DWIDTH 5 0
BBX 5 12 0 -1
BITMAP
444550
556550
556550
555000
555000
555000
555000
555000
555000
555000
556A90
444550
ENDCHAR
STARTCHAR bracketright.case
ENCODING -1
SWIDTH 453 0
DWIDTH 5 0
BBX 5 12 0 -1
BITMAP
254640
4A6860
002860
002860
002860
002860
002860
002860
002860
254860
254860
254640
ENDCHAR
STARTCHAR brokenbar.case
ENCODING -1
SWIDTH 262 0
DWIDTH 3 0
BBX 3 11 0 0
BITMAP
5550
5550
5550
5550
5550
0000
5550
5550
5550
5550
5550
ENDCHAR
STARTCHAR bullet.case
ENCODING -1
SWIDTH 503 0
DWIDTH 6 0
BBX 6 6 0 2
BITMAP
026620
166661
560065
560065
176661
026620
ENDCHAR
STARTCHAR uni0327.case
ENCODING -1
SWIDTH 0 0
DWIDTH 0 0
BBX 4 4 0 -3
BITMAP
0310
0960
0124
2660
ENDCHAR
STARTCHAR cent.case
ENCODING -1
SWIDTH 577 0
DWIDTH 7 0
BBX 7 11 0 -1
BITMAP
00055000
00044000
00466520
06666500
37600000
56500000
36700100
07466620
00556400
00044000
00055000
ENDCHAR
STARTCHAR uni0302.case
ENCODING -1
SWIDTH 0 0
DWIDTH 0 0
BBX 6 3 0 11
BITMAP
004300
047560
275374
ENDCHAR
STARTCHAR colon.case
ENCODING -1
SWIDTH 262 0
DWIDTH 3 0
BBX 3 7 0 0
BITMAP
5550
5550
0000
0000
0000
5550
5550
ENDCHAR
STARTCHAR comma.case
ENCODING -1
SWIDTH 338 0
DWIDTH 4 0
BBX 4 4 0 -1
BITMAP
0111
0674
0881
4760
ENDCHAR
STARTCHAR copyright.case
ENCODING -1
SWIDTH 895 0
DWIDTH 11 0
BBX 11 10 0 0
BITMAP
0029BBB71000
04A30005A100
194055507700
560655531920
661730000650
661730000650
560655531920
194055507700
049300059100
0028BAB71000
ENDCHAR
STARTCHAR currency.case
ENCODING -1
SWIDTH 676 0
DWIDTH 8 0
BBX 8 8 0 1
BITMAP
01000010
06600560
36466464
02766730
00931920
03766730
46366475
06500471
ENDCHAR
STARTCHAR degree.case
ENCODING -1
SWIDTH 413 0
DWIDTH 5 0
BBX 5 5 0 5
BITMAP
09B900
660660
660560
456540
056400
ENDCHAR
STARTCHAR uni0308.case
ENCODING -1
SWIDTH 0 0
DWIDTH 0 0
BBX 7 3 0 10
BITMAP
16406600
51624420
16406600
ENDCHAR
STARTCHAR divide.case
ENCODING -1
SWIDTH 618 0
DWIDTH 7 0
BBX 7 7 0 1
BITMAP
00054000
00054000
26666650
5BBBBB90
00054000
00055000
00054000
ENDCHAR
STARTCHAR uni2215.case
ENCODING -1
SWIDTH 483 0
DWIDTH 6 0
BBX 6 10 0 0
BITMAP
000674
002870
006660
006740
028700
056600
067500
188100
566000
675000
ENDCHAR
STARTCHAR dollar.case
ENCODING -1
SWIDTH 660 0
DWIDTH 8 0
BBX 8 11 0 -1
BITMAP
00055000
04556630
46856872
66755432
56755000
05766750
00166764
12355656
56756764
06756750
00055000
ENDCHAR
STARTCHAR eight.case
ENCODING -1
SWIDTH 561 0
DWIDTH 7 0
BBX 7 10 0 0
BITMAP
05BBA300
38565910
56506740
56735740
46777600
36678710
66546740
56506740
48565900
05BB9300
ENDCHAR
STARTCHAR ellipsis.case
ENCODING -1
SWIDTH 766 0
DWIDTH 9 0
BBX 9 2 0 0
BITMAP
5555555550
5555555550
ENDCHAR
STARTCHAR emdash.case
ENCODING -1
SWIDTH 790 0
DWIDTH 9 0
BBX 9 2 0 4
BITMAP
2666666650
5BBBBBBBA0
ENDCHAR
STARTCHAR endash.case
ENCODING -1
SWIDTH 721 0
DWIDTH 9 0
BBX 8 2 0 4
BITMAP
26666666
5BBBBBBB
ENDCHAR
STARTCHAR equal.case
ENCODING -1
SWIDTH 618 0
DWIDTH 7 0
BBX 7 6 0 2
BITMAP
26666650
26666650
26666650
26666650
26666650
26666650
ENDCHAR
STARTCHAR Euro.case
ENCODING -1
SWIDTH 767 0
DWIDTH 9 0
BBX 9 10 0 0
BITMAP
0005BBB820
0078555640
0486201400
0454000000
5555550000
9BBBBB0000
0454000000
0486201400
0078556640
0005ABB820
ENDCHAR
STARTCHAR exclam.case
ENCODING -1
SWIDTH 262 0
DWIDTH 3 0
BBX 3 10 0 0
BITMAP
5550
5550
5550
5550
5550
5550
5550
2220
5550
5550
ENDCHAR
STARTCHAR exclamdown.case
ENCODING -1
SWIDTH 262 0
DWIDTH 3 0
BBX 3 10 0 -3
BITMAP
5550
5550
2220
5550
5550
5550
5550
5550
5550
5550
ENDCHAR
STARTCHAR five.case
ENCODING -1
SWIDTH 558 0
DWIDTH 7 0
BBX 7 10 0 0
BITMAP
25555500
25555500
33300000
55500000
55555100
555B8700
00006740
55506740
48565910
05BB9300
ENDCHAR
STARTCHAR four.case
ENCODING -1
SWIDTH 585 0
DWIDTH 7 0
BBX 7 10 0 0
BITMAP
00177200
00666000
00773000
05660000
07740000
46555500
35565540
35565540
35565540
00055500
ENDCHAR
STARTCHAR uni2074.case
ENCODING -1
SWIDTH 312 0
DWIDTH 4 0
BBX 4 5 0 5
BITMAP
0660
3720
5655
4455
0011
ENDCHAR
STARTCHAR fraction.case
ENCODING -1
SWIDTH 655 0
DWIDTH 8 0
BBX 8 10 0 0
BITMAP
00000471
00000750
00005700
00007500
00067000
00174000
00660000
02730000
06600000
27300000
ENDCHAR
STARTCHAR gravecomb.case
ENCODING -1
SWIDTH 0 0
DWIDTH 0 0
BBX 4 3 0 11
BITMAP
2410
0760
0472
ENDCHAR
STARTCHAR greater.case
ENCODING -1
SWIDTH 677 0
DWIDTH 8 0
BBX 8 9 0 1
BITMAP
10000000
46200000
46761000
16767500
00267773
00655640
37776100
37730000
35000000
ENDCHAR
STARTCHAR guillemotleft.case
ENCODING -1
SWIDTH 666 0
DWIDTH 8 0
BBX 8 7 0 1
BITMAP
00430042
06730672
35633563
37603760
37733773
02730373
00020002
ENDCHAR
STARTCHAR guillemotright.case
ENCODING -1
SWIDTH 666 0
DWIDTH 8 0
BBX 8 7 0 1
BITMAP
24003400
27603760
36533653
06731673
37733773
37303720
20002000
ENDCHAR
STARTCHAR guilsinglleft.case
ENCODING -1
SWIDTH 338 0
DWIDTH 4 0
BBX 4 7 0 1
BITMAP
0043
0673
3563
3760
3773
0273
0002
ENDCHAR
STARTCHAR guilsinglright.case
ENCODING -1
SWIDTH 338 0
DWIDTH 4 0
BBX 4 7 0 1
BITMAP
2400
2760
3653
0673
3773
3730
2000
ENDCHAR
STARTCHAR hyphen.case
ENCODING -1
SWIDTH 445 0
DWIDTH 5 0
BBX 5 2 0 4
BITMAP
266640
5BBB80
ENDCHAR
STARTCHAR less.case
ENCODING -1
SWIDTH 677 0
DWIDTH 8 0
BBX 8 9 0 0
BITMAP
00000044
00002774
00067774
03655610
27776300
00477761
00006765
00000265
00000001
ENDCHAR
STARTCHAR logicalnot.case
ENCODING -1
SWIDTH 618 0
DWIDTH 7 0
BBX 7 5 0 1
BITMAP
26666650
5BBBBB90
00000000
00002960
00002860
ENDCHAR
STARTCHAR uni00B5.case
ENCODING -1
SWIDTH 792 0
DWIDTH 10 0
BBX 10 13 0 -3
BITMAP
5550028600
5550028600
5550028600
5550028600
5550028600
5550028600
5550028600
5550056610
5566659461
556AAA34B2
5550000000
5550000000
3330000000
ENDCHAR
STARTCHAR minus.case
ENCODING -1
SWIDTH 618 0
DWIDTH 7 0
BBX 7 2 0 4
BITMAP
26666650
5BBBBB90
ENDCHAR
STARTCHAR multiply.case
ENCODING -1
SWIDTH 580 0
DWIDTH 7 0
BBX 7 6 0 2
BITMAP
02203300
0C847730
02777600
03776200
37769810
05602700
ENDCHAR
STARTCHAR nine.case
ENCODING -1
SWIDTH 558 0
DWIDTH 7 0
BBX 7 10 0 0
BITMAP
05BB9300
48555910
66505740
66505650
27AA5650
02655650
00005650
66505740
38555910
05BBA300
ENDCHAR
STARTCHAR numbersign.case
ENCODING -1
SWIDTH 776 0
DWIDTH 9 0
BBX 9 10 0 0
BITMAP
0055508800
0056515400
0458566640
0478366640
0397366640
2676556710
2666468510
2666478410
0555186000
0583475000
ENDCHAR
STARTCHAR one.case
ENCODING -1
SWIDTH 378 0
DWIDTH 5 0
BBX 4 10 0 0
BITMAP
4398
4398
4398
0098
0098
0098
0098
0098
0098
0098
ENDCHAR
STARTCHAR onehalf.case
ENCODING -1
SWIDTH 735 0
DWIDTH 9 0
BBX 9 10 0 0
BITMAP
4681006600
0181057100
0181075000
0181570000
0031740000
000664B910
0017404720
0066026600
0273045510
0660045510
ENDCHAR
STARTCHAR onequarter.case
ENCODING -1
SWIDTH 722 0
DWIDTH 9 0
BBX 9 10 0 0
BITMAP
4681006600
0181057100
0181075000
0181570000
0031740000
0006617400
0017466000
0066075810
0273054810
0660000200
ENDCHAR
STARTCHAR uni00B9.case
ENCODING -1
SWIDTH 306 0
DWIDTH 4 0
BBX 4 5 0 5
BITMAP
4681
0181
0181
0181
0030
ENDCHAR
STARTCHAR ordfeminine.case
ENCODING -1
SWIDTH 456 0
DWIDTH 5 0
BBX 5 5 0 5
BITMAP
018600
056600
067730
186750
230230
ENDCHAR
STARTCHAR ordmasculine.case
ENCODING -1
SWIDTH 489 0
DWIDTH 6 0
BBX 6 5 0 5
BITMAP
06BB40
380191
550163
266560
026620
ENDCHAR
STARTCHAR paragraph.case
ENCODING -1
SWIDTH 893 0
DWIDTH 11 0
BBX 11 10 0 0
BITMAP
056555555510
535555555510
566555555510
675003751810
366555751810
035555751810
000004751810
000004751810
000004751810
000004751810
ENDCHAR
STARTCHAR parenleft.case
ENCODING -1
SWIDTH 290 0
DWIDTH 3 0
BBX 4 11 0 -1
BITMAP
0576
0782
3860
6660
5650
5650
5650
6660
3860
0782
0576
ENDCHAR
STARTCHAR parenright.case
ENCODING -1
SWIDTH 290 0
DWIDTH 3 0
BBX 5 11 -1 0
BITMAP
198000
067500
047600
019700
007910
006820
007910
019700
047500
067500
198000
ENDCHAR
STARTCHAR percent.case
ENCODING -1
SWIDTH 827 0
DWIDTH 10 0
BBX 10 10 0 0
BITMAP
1AB9101774
6606606770
6606537720
0565077600
0000577000
0017755540
0067755654
0377266066
0776066065
5771019B80
ENDCHAR
STARTCHAR period.case
ENCODING -1
SWIDTH 262 0
DWIDTH 3 0
BBX 3 2 0 0
BITMAP
5550
5550
ENDCHAR
STARTCHAR periodcentered.case
ENCODING -1
SWIDTH 262 0
DWIDTH 3 0
BBX 3 2 0 4
BITMAP
5550
5550
ENDCHAR
STARTCHAR plus.case
ENCODING -1
SWIDTH 616 0
DWIDTH 7 0
BBX 7 8 0 1
BITMAP
00111000
00475000
00475000
26675540
5B875A90
00475000
00475000
00122000
ENDCHAR
STARTCHAR plusminus.case
ENCODING -1
SWIDTH 618 0
DWIDTH 7 0
BBX 7 10 0 0
BITMAP
00111000
00475000
00475000
26675540
5B875A90
00475000
00475000
00122000
26666650
5BBBBB90
ENDCHAR
STARTCHAR question.case
ENCODING -1
SWIDTH 598 0
DWIDTH 7 0
BBX 7 10 0 0
BITMAP
04656400
16455430
45506450
00006650
00076920
00468400
00565000
00222000
00555000
00555000
ENDCHAR
STARTCHAR questiondown.case
ENCODING -1
SWIDTH 598 0
DWIDTH 7 0
BBX 7 10 0 -3
BITMAP
00555000
00555000
00222000
00566000
02876000
18771000
56510000
55605450
15465430
03656400
ENDCHAR
STARTCHAR quotedbl.case
ENCODING -1
SWIDTH 464 0
DWIDTH 6 0
BBX 6 4 0 6
BITMAP
574574
574574
574574
111111
ENDCHAR
STARTCHAR quotedblbase.case
ENCODING -1
SWIDTH 464 0
DWIDTH 6 0
BBX 6 4 0 -2
BITMAP
574574
574574
074074
011011
ENDCHAR
STARTCHAR quotedblleft.case
ENCODING -1
SWIDTH 464 0
DWIDTH 6 0
BBX 6 4 0 6
BITMAP
110110
550550
574574
574574
ENDCHAR
STARTCHAR quotedblright.case
ENCODING -1
SWIDTH 464 0
DWIDTH 6 0
BBX 6 4 0 6
BITMAP
574574
574574
074074
011011
ENDCHAR
STARTCHAR quoteleft.case
ENCODING -1
SWIDTH 212 0
DWIDTH 3 0
BBX 3 4 0 6
BITMAP
1100
5500
5740
5740
ENDCHAR
STARTCHAR quoteright.case
ENCODING -1
SWIDTH 212 0
DWIDTH 3 0
BBX 3 4 0 6
BITMAP
5740
5740
0740
0110
ENDCHAR
STARTCHAR quotesinglbase.case
ENCODING -1
SWIDTH 212 0
DWIDTH 3 0
BBX 3 4 0 -2
BITMAP
5740
5740
0740
0110
ENDCHAR
STARTCHAR quotesingle.case
ENCODING -1
SWIDTH 212 0
DWIDTH 3 0
BBX 3 4 0 6
BITMAP
5740
5740
5740
1110
ENDCHAR
STARTCHAR registered.case
ENCODING -1
SWIDTH 895 0
DWIDTH 11 0
BBX 11 10 0 0
BITMAP
0029BBB71000
04A30005A100
194465617700
560675561920
660675650650
660679800650
560652821920
194330437700
049300059100
0028BAB71000
ENDCHAR
STARTCHAR uni030A.case
ENCODING -1
SWIDTH 0 0
DWIDTH 0 0
BBX 4 3 0 10
BITMAP
1760
5151
1760
ENDCHAR
STARTCHAR section.case
ENCODING -1
SWIDTH 645 0
DWIDTH 8 0
BBX 8 13 0 -2
BITMAP
00566500
06755760
08565463
07A63100
04768930
05356770
38631880
37655560
06769620
00356770
34655870
26655560
01555500
ENDCHAR
STARTCHAR semicolon.case
ENCODING -1
SWIDTH 338 0
DWIDTH 4 0
BBX 4 8 0 -1
BITMAP
0555
0555
0000
0000
0111
0674
0881
4760
ENDCHAR
STARTCHAR seven.case
ENCODING -1
SWIDTH 505 0
DWIDTH 6 0
BBX 6 10 0 0
BITMAP
355553
355553
355553
000564
000881
004760
006650
007820
028600
056600
ENDCHAR
STARTCHAR six.case
ENCODING -1
SWIDTH 558 0
DWIDTH 7 0
BBX 7 10 0 0
BITMAP
05BBA300
38566910
56505740
56400000
56655100
567B8700
56406740
56506740
48565910
05BB9300
ENDCHAR
STARTCHAR slash.case
ENCODING -1
SWIDTH 504 0
DWIDTH 6 0
BBX 6 11 0 -1
BITMAP
000476
000665
001781
005760
006650
018810
057600
067500
188100
576000
675000
ENDCHAR
STARTCHAR uni00AD.case
ENCODING -1
SWIDTH 445 0
DWIDTH 5 0
BBX 5 2 0 4
BITMAP
266640
5BBB80
ENDCHAR
STARTCHAR sterling.case
ENCODING -1
SWIDTH 618 0
DWIDTH 7 0
BBX 8 10 0 0
BITMAP
04656610
25456260
55601630
45500000
45555200
8BBBB400
36720000
00000000
55555550
9AAAAAA1
ENDCHAR
STARTCHAR three.case
ENCODING -1
SWIDTH 558 0
DWIDTH 7 0
BBX 7 10 0 0
BITMAP
05BBA200
39566900
56505740
00005740
00046610
00078700
00006740
56506740
48565910
05BB9300
ENDCHAR
STARTCHAR threequarters.case
ENCODING -1
SWIDTH 722 0
DWIDTH 9 0
BBX 9 10 0 0
BITMAP
28A3006600
0062057100
0055075000
3354570000
0651740000
0006617400
0017466000
0066075810
0273054810
0660000200
ENDCHAR
STARTCHAR uni00B3.case
ENCODING -1
SWIDTH 332 0
DWIDTH 4 0
BBX 4 5 0 5
BITMAP
28A3
0062
0055
3354
0650
ENDCHAR
STARTCHAR tildecomb.case
ENCODING -1
SWIDTH 0 0
DWIDTH 0 0
BBX 6 2 0 10
BITMAP
165031
311650
ENDCHAR
STARTCHAR trademark.case
ENCODING -1
SWIDTH 850 0
DWIDTH 10 0
BBX 10 5 0 5
BITMAP
55555830A5
5775577795
0550567885
0550561355
0550560055
ENDCHAR
STARTCHAR two.case
ENCODING -1
SWIDTH 558 0
DWIDTH 7 0
BBX 7 10 0 0
BITMAP
05656200
43563600
55506540
00006740
00076910
00569600
03687000
06660000
25555500
4AAAAA10
ENDCHAR
STARTCHAR uni00B2.case
ENCODING -1
SWIDTH 339 0
DWIDTH 4 0
BBX 4 5 0 5
BITMAP
2AA2
0265
0761
2552
2552
ENDCHAR
STARTCHAR underscore.case
ENCODING -1
SWIDTH 667 0
DWIDTH 8 0
BBX 8 2 0 0
BITMAP
25555552
4AAAAAA4
ENDCHAR
STARTCHAR yen.case
ENCODING -1
SWIDTH 769 0
DWIDTH 9 0
BBX 9 10 0 0
BITMAP
6760006770
1775037730
0477177600
0077767100
0027754000
0003330000
0157655200
0157655200
0157655200
0005650000
ENDCHAR
STARTCHAR zero.case
ENCODING -1
SWIDTH 558 0
DWIDTH 7 0
BBX 7 10 0 0
BITMAP
05BBA300
38555910
56505740
56405650
56405650
56405650
56405650
56505740
48565910
05BB9300
ENDCHAR
ENDFONT
